<?xml version="1.0" encoding="UTF-8"?>
<svg id="Layer_1" data-name="Layer 1" xmlns="http://www.w3.org/2000/svg" viewBox="0 0 200 200">
  <defs>
    <style>
      .cls-1 {
        fill: #f7a63c;
      }

      .cls-2 {
        fill: #f7a63d;
      }

      .cls-3 {
        fill: #f7a63b;
      }

      .cls-4 {
        fill: #f7a53b;
      }
    </style>
  </defs>
  <path class="cls-3" d="m195,106.74c-.29,1.74-.29,3.48-.87,5.23-2.03,18.29-8.98,34.26-20.85,47.9-2.61,2.9-5.5,6.1-8.11,9h-.29c-.29-1.74-.29-2.9-.87-4.65-2.9-19.45-8.69-38.61-16.8-56.61-.29-.29,0-1.74,0-2.03,5.5-12.48,9.85-25.84,13.32-39.48.87-3.48,1.74-7.26,2.61-10.74,2.03.29,4.63.87,6.95,1.16,5.21,1.16,9.85,2.03,14.77,3.48.87,0,1.16.29,1.74,1.16,4.34,9.58,6.95,19.16,7.82,29.32,0,1.16.29,2.61.29,3.77.29,4.35.29,8.71.29,12.48Z"/>
  <path class="cls-4" d="m30.2,78.29c2.03-1.16,3.77-2.03,6.08-3.48.29,0,.87,0,1.16.29,4.34,3.77,10.43,3.48,14.19-.87,1.74-2.03,2.61-4.35,2.61-6.97,0-.87.29-1.16,1.16-1.74,13.32-5.52,27.52-9,42-11.32,1.74-.29,2.9-.29,4.63-.29.29,0,.87,0,1.16.29,3.48,3.77,7.24,7.26,10.72,11.32-2.61,4.35-2.9,8.71.29,12.48,2.9,3.77,6.95,4.65,11.59,2.9.87.87,1.16,2.03,2.03,2.9,4.63,6.97,8.69,14.23,12.16,21.77.29.87.29,1.16,0,2.03-8.11,16.84-18.54,32.52-31.57,46.16-3.77,3.77-7.82,7.84-11.59,11.61-.87.87-1.16.87-2.03,0-22.01-13.35-38.81-31.07-50.98-54-5.5-10.45-9.85-21.77-13.32-32.81l-.29-.29Z"/>
  <path class="cls-3" d="m25.27,81.77c11.3,37.74,32.44,67.36,66.04,88.84-.29.29-.87.87-1.16.87-7.82,6.1-15.93,11.61-24.62,16.84-.29.29-1.16.29-1.74,0-29.25-13.06-47.79-35.13-56.19-66.19-2.03-8.13-2.61-16.55-2.61-24.68,0-.29.29-1.16.87-1.74,6.37-4.65,12.45-9.58,19.12-13.94h.29Z"/>
  <path class="cls-3" d="m57.71,15c4.63-2.61,9.85-4.35,15.06-6.1,9.85-2.9,19.98-4.35,30.12-3.77,21.72.87,41.13,8.13,57.35,21.77.29.29.87.87.87,1.16-.87,6.97-1.16,13.35-2.03,20.32,0,0,0,.29-.29.29-2.03-.29-3.77-.29-6.08-.87-11.59-1.16-23.17-1.74-35.34-1.16-3.77,0-7.82.29-11.59.87-.29,0-1.16,0-1.74-.29-13.9-12.48-28.96-23.23-45.76-31.65.29,0-.29,0-.58-.58Z"/>
  <path class="cls-3" d="m106.08,172.06c-1.74-.87-2.9-1.74-4.63-2.61,8.69-7.84,16.8-16.55,24.04-25.84,7.24-9.58,13.32-19.45,19.12-30.19,1.16,2.9,2.03,5.52,3.48,8.13,5.21,13.94,8.98,28.45,11.59,43.26.29,2.61.87,5.23,1.16,8.13,0,.29-.29,1.16-.29,1.74-5.21,4.35-10.43,7.84-16.51,10.74-.29.29-1.16.29-2.03,0-5.21-1.74-10.43-2.9-15.64-4.65-.87-.29-1.16-.87-1.16-1.74.29-5.52-2.9-9.87-7.82-10.74-3.48-.87-6.37,0-8.98,2.61-1.16,0-2.03.29-2.32,1.16Z"/>
  <path class="cls-3" d="m97.97,48.97c-12.16,1.74-23.17,4.35-34.47,8.13-3.48,1.16-6.37,2.61-9.56,3.48-.87.29-1.16.29-2.03-.29-2.9-2.9-7.82-3.48-11.3-1.74-3.77,1.74-6.08,6.1-5.5,9.87,0,.29,0,.87-.29.87-1.74.87-3.48,1.74-5.21,2.9-.87-2.9-1.74-6.39-2.03-9.58-.87-6.1-2.03-12.19-2.9-17.71,0-.87,0-1.74.87-2.9,7.24-9.58,15.93-17.71,26.36-23.81.29.29.87.29,1.74.87,15.93,7.84,30.12,17.42,43.73,29.03-.29,0-.29.29.58.87Z"/>
  <path class="cls-1" d="m110.43,53.03c15.93-1.16,31.86-.87,47.5,1.74-2.9,15.68-7.24,30.77-13.9,45.29-.29-.29-.29-.87-.87-.87-4.34-6.97-8.11-13.94-12.45-20.9-.29-.87-.29-1.16,0-2.03,2.03-3.77,1.74-7.84-.87-11.32s-6.08-4.65-10.43-3.48c-1.16.29-1.74,0-2.61-.87-2.03-2.03-4.34-4.65-6.37-6.97q.29,0,0-.58Z"/>
  <path class="cls-1" d="m97.1,173.52c2.03,1.16,4.34,2.03,6.95,3.48.29,0,.29.87.87,1.16.29,4.65,2.9,7.84,7.24,9,3.48.87,6.37,0,8.98-1.74.29-.29.87-.29,1.16-.29,3.77,1.16,7.82,2.61,11.59,3.77-10.43,3.77-20.27,6.1-30.99,6.1s-21.14-.87-30.99-3.77c8.11-5.81,16.51-11.61,25.2-17.71Z"/>
  <path class="cls-2" d="m18.32,51.29c.87,5.23,1.74,9.87,2.9,15.1.29,2.9,1.16,5.52,2.03,8.13,0,.87,0,1.16-.29,1.74-5.5,3.77-10.72,7.84-16.51,11.61h-.29c-1.16-4.35,6.66-27.87,12.16-36.58Z"/>
  <path class="cls-2" d="m182.84,53.61c-6.08-1.16-12.16-2.61-18.54-3.77.87-5.52,1.16-11.32,2.03-17.42,6.95,6.39,12.16,13.35,16.51,21.19Z"/>
</svg>