<?xml version="1.0" encoding="UTF-8"?>
<svg id="Layer_1" data-name="Layer 1" xmlns="http://www.w3.org/2000/svg" viewBox="0 0 1446.5 245.72">
  <defs>
    <style>
      .cls-1, .cls-2 {
        fill: #f7a53b;
      }

      .cls-3 {
        fill: #f9f9f9;
      }

      .cls-2 {
        font-family: Marcana-Regular, Marcana;
        font-size: 250px;
        isolation: isolate;
      }
    </style>
  </defs>
  <g>
    <path class="cls-3" d="m453.22,46.83c-3.83.99-6.63,2.64-9.74,5.78-2.99,2.96-4.24,4.91-5.45,8.56-.87,2.58-1.19,8.16-.62,10.95,2.03,10.37,10.61,17.65,20.88,17.68,6.76,0,12.48-2.64,16.44-7.63,6.6-8.25,6.66-20.1.18-28.06-2.96-3.64-7.32-6.38-11.76-7.38-2.74-.65-7.29-.59-9.93.1Zm9,4.2c3.8.99,6.82,3.14,8.94,6.36,1.59,2.4,2.15,3.77,2.84,6.6,2.06,8.94-3.02,18.36-11.18,20.7-1.4.41-2.64.5-5.17.41-3.17-.12-3.46-.18-6.01-1.46-4.42-2.18-7.44-6.04-8.74-11.12-.62-2.46-.62-6.82,0-9.27,1.53-5.89,6.04-10.64,11.55-12.17,1.98-.59,5.77-.59,7.77-.05Z"/>
    <path class="cls-3" d="m453.62,57.16c-1.59.12-3.02.35-3.17.5s-.26,4.82-.21,10.86l.09,10.55,2.43.09,2.4.09v-8.75h1.74c1.89,0,3.71.69,4.21,1.62.15.32.59,1.65.9,2.99,1.13,4.33.9,4.1,3.92,4.1q2.58,0,2.3-.72c-.15-.38-.59-1.92-.93-3.46-.81-3.4-1.62-5.05-2.84-5.72-.9-.53-1.22-1.31-.5-1.31.21,0,.93-.44,1.59-.99,2.06-1.68,2.55-3.92,1.46-6.36-.75-1.68-1.68-2.49-3.43-3.05-1.77-.57-6.07-.75-9.96-.44Zm6.97,3.86c1.13.56,1.71,1.59,1.71,2.99,0,1.86-2.46,3.2-5.54,3.02l-1.46-.09-.09-2.76c-.06-1.53-.03-2.96.06-3.2.26-.62,4.02-.56,5.32.04Z"/>
    <path class="cls-3" d="m27.73,61.76c-.18.29,4.15,1.4,4.39,1.16.12-.12-3.55-1.43-3.98-1.43-.14,0-.32.12-.41.27Z"/>
    <path class="cls-3" d="m271.07,70.5c-6.22.87-10.31,1.8-15.71,3.71-12.66,4.42-24.68,12.57-33.31,22.6-16.27,18.99-24.05,44.2-22.07,71.74,1.56,22.07,10.08,41.51,24.55,56.05,5.57,5.6,10.68,9.43,17.17,12.82,14.69,7.72,34.98,10.31,52.69,6.69,21.23-4.3,37.15-17.4,50.39-41.39l1.16-2.09-3.28-2.18c-1.8-1.22-3.4-2.21-3.52-2.21-.12.03-1.59,1.86-3.2,4.15-13.79,19.26-23.65,26.67-39.53,29.66-4.21.78-14.75.81-19.29,0-24.25-4.18-39.44-20.13-44.97-47.31-2.84-13.97-2.58-37,.59-51.29,2.06-9.12,3.86-14.5,7.06-20.94,8.46-16.93,21.17-25.74,39.74-27.57,6.1-.59,13.42.26,19.67,2.24,16.59,5.35,27.39,18.48,34.39,41.74.44,1.49.93,2.79,1.05,2.9.15.06.96-.06,1.83-.32,1.92-.59,3.83-2.58,4.42-4.67.44-1.53.32-3.89-1.86-37.03-.15-2.58-.47-7.47-.66-10.89-.18-3.43-.41-6.42-.47-6.63-.06-.29-1.13-.38-3.83-.38h-3.74l-.35,1.31c-1.1,4.21-2.67,7.35-4.48,8.77-1.02.84-1.4.96-3.08.93-1.74,0-2.4-.26-7.06-2.55-9.3-4.58-16.56-6.88-25.06-7.96-4.92-.66-13.95-.6-19.24.1Z"/>
    <path class="cls-3" d="m411.74,73.52c-.81,2.03-1.68,4.07-1.89,4.61-.21.5-1.16,2.84-2.09,5.14-4.24,10.34-5.32,13.01-7.84,19.14-3.43,8.31-4.79,11.7-12.35,30.18-1.19,2.9-2.27,5.57-2.43,5.92-.15.35-1.05,2.52-2,4.82-2.52,6.22-5.89,14.47-8.13,19.92-1.1,2.64-2.79,6.85-3.83,9.33-.99,2.49-2.9,7.09-4.21,10.28s-3.2,7.84-4.27,10.43c-1.02,2.55-2.03,4.94-2.18,5.29s-1.68,4.04-3.43,8.19c-6.16,14.93-10.58,21.96-15.07,23.99-1.62.75-6.42,2.06-8.65,2.39-.81.09-1.62.38-1.8.59-.23.26-.32,1.86-.26,4.24l.09,3.86h53.54v-8.42l-2.03-.23c-6.79-.72-10.2-1.43-12.32-2.52-1.34-.69-3.08-2.73-3.55-4.1-.26-.72-.32-1.77-.15-2.9.44-3.64,1.65-7.2,6.48-18.88.78-1.89,2.49-6.01,3.8-9.18,1.31-3.17,2.61-6.32,2.9-7,.26-.69.62-1.34.81-1.46.18-.12,13.25-.26,29.04-.26h28.7l.47.9c.81,1.56,10.08,24.8,11.12,27.79,1.22,3.58,2.15,7.75,2.15,9.59,0,2.61-1.86,5.26-4.51,6.36-1.49.62-5.45,1.37-8.62,1.62l-2.73.18v8.66h65.98v-8.63l-2.55-.23c-3.61-.32-6.22-.99-9.18-2.39-3.08-1.46-5.26-3.49-7.56-6.97-1.92-2.96-5.32-9.87-7.32-14.78-.78-1.97-1.56-3.86-1.71-4.21s-.84-2.03-1.53-3.74c-1.77-4.61-32.06-80.2-32.39-80.92-.29-.59-1.77-4.39-14.72-36.79l-5.35-13.48h-6.92l-1.51,3.67Zm2.49,51.29c1.97,4.94,3.74,9.3,3.89,9.64,1.34,2.84,11.85,29.72,12.02,30.65.32,1.89-.62,4.48-2.24,6.22-2.4,2.55-1.83,2.49-23.03,2.49-14.6,0-18.48-.09-18.48-.41,0-.18.56-1.71,1.22-3.34,2.93-7.06,7.29-17.61,9.06-21.93,1.05-2.58,2.18-5.26,2.52-5.98.32-.75.59-1.4.59-1.49,0-.15,3.37-8.31,5.11-12.45.21-.53,1.53-3.61,2.87-6.91,1.34-3.31,2.55-5.89,2.67-5.75s1.8,4.29,3.8,9.26Z"/>
    <path class="cls-3" d="m1.08,77.96v4.33l5.84.12c4.82.12,6.13.26,7.53.78,4.48,1.65,6.97,3.67,7.87,6.51.29.84.66,3.05.84,4.94.44,4.73.44,120.74,0,125.42-.75,7.63-2.49,10.28-8.28,12.32-1.53.53-2.84.69-7.81.81l-6.01.18v8.63h71.28v-8.63l-5.51-.18c-6.72-.21-8.59-.69-12.42-3.23-2.09-1.37-3.05-2.84-3.74-5.89-.56-2.33-.59-5.41-.69-62.53-.06-36.48.03-61.66.23-64.11.56-7.56,1.68-10.43,4.97-12.63,2.87-1.89,4.39-2.24,11.24-2.43,3.34-.09,6.04-.29,6.01-.44-.06-.12-.09-2.06-.09-4.27v-4.04H1.08v4.34Z"/>
    <path class="cls-3" d="m81.5,74.03c-.06.21-.09,2.15-.06,4.3l.09,3.86,5.92.18c6.16.23,6.94.38,10.2,2.03,3.28,1.62,4.79,3.43,5.48,6.51.81,3.71.96,12.86.96,66.6s-.12,62.33-1.16,66.92c-.59,2.73-.96,3.46-2.55,4.97-2.96,2.87-5.45,3.61-13.1,3.86l-5.75.18v8.42l35.73.09,35.7.06v-8.63l-5.51-.18c-6.1-.18-7.78-.53-11.27-2.39-2.76-1.49-4.21-3.23-4.79-5.84-.29-1.16-.56-2.9-.66-3.86-.12-.96-.18-14.78-.18-30.65v-28.88h15.94c17.28,0,17.86.06,21.32,1.77,2,.99,4.33,3.64,5.54,6.25,1.25,2.73,1.74,5.38,2,10.64l.18,4.04.93-.09c1.89-.15,3.55-1.02,4.94-2.58,2.49-2.76,2.36-1.16,2.36-30.68v-26.23h-8.06l-.15.99c-.87,5.78-1.25,7.81-1.89,10.08-1.86,6.38-4.24,8.89-9.96,10.58-1.65.47-3.8.56-17.49.65-8.62.09-15.65.03-15.65-.12v-59.78c0-.69,39.18-.35,43.25.35,6.25,1.05,9.52,2.58,13.1,6.13,3.71,3.64,5.75,7.66,8.34,16.18l1.19,3.89,3.92.09,3.95.09-.15-1.34c-.09-.75-.38-6.88-.66-13.63-.44-11.18-.99-24.92-1.05-25.15,0-.03-27.16-.06-60.38-.06-49.39-.02-60.45.04-60.57.38Z"/>
  </g>
  <text class="cls-2" transform="translate(552.08 241.61)"><tspan x="0" y="0">software</tspan></text>
  <g>
    <path class="cls-1" d="m66.1,35.3c-.2.6-.2,1.2-.3,1.8-.8,6.3-3.2,11.9-7.2,16.7-.9,1.1-2,2.1-2.9,3.2h-.2c-.2-.6-.2-1.1-.3-1.7-1.1-6.8-3-13.4-5.9-19.7-.2-.2,0-.6,0-.8,2-4.4,3.5-9,4.7-13.7.3-1.2.6-2.6.9-3.8.8.2,1.7.3,2.4.5,1.8.5,3.5.8,5.1,1.2.3,0,.5.2.6.5,1.5,3.3,2.4,6.6,2.7,10.2,0,.5.2.9.2,1.4.2,1.4.2,2.9.2,4.2Z"/>
    <path class="cls-1" d="m8.7,25.4c.8-.5,1.4-.8,2.1-1.2.2,0,.3,0,.5.2,1.5,1.4,3.6,1.2,5-.3.6-.8.9-1.5.9-2.4,0-.3.2-.5.5-.6,4.7-2,9.6-3.2,14.6-3.9.6-.2,1.1-.2,1.7-.2.2,0,.3,0,.5.2,1.2,1.4,2.6,2.6,3.8,3.9-.9,1.5-1.1,3,.2,4.4,1.1,1.4,2.4,1.7,4.1,1.1.3.3.5.8.8,1.1,1.7,2.4,3,5,4.2,7.5.2.3.2.5,0,.8-2.9,5.9-6.5,11.3-11,16.1l-4.1,4.1c-.3.3-.5.3-.8,0-7.7-4.7-13.5-10.8-17.7-18.8-2-3.6-3.5-7.5-4.7-11.4q-.4-.4-.6-.6Z"/>
    <path class="cls-1" d="m7.1,26.6c3.9,13.1,11.2,23.5,22.9,30.8-.2.2-.3.3-.5.3-2.7,2.1-5.6,4.1-8.6,5.9-.2.2-.5.2-.6,0C10.1,59.1,3.6,51.4.8,40.6c-.6-2.9-.8-5.7-.8-8.6,0-.2.2-.5.3-.6,2.3-1.6,4.4-3.3,6.8-4.8q-.2,0,0,0Z"/>
    <path class="cls-1" d="m18.3,3.5c1.7-.9,3.5-1.5,5.3-2.1,3.4-1.1,6.9-1.5,10.5-1.4,7.5.3,14.3,2.9,20,7.5.2.2.3.3.3.5-.3,2.4-.5,4.7-.8,7.1,0,0,0,.2-.2.2-.8-.2-1.4-.2-2.1-.3-4.1-.5-8.1-.6-12.3-.5-1.4,0-2.7.2-4.1.3-.2,0-.5,0-.6-.2-4.7-4.4-10-8.1-16-11.1.3.1.2.1,0,0Z"/>
    <path class="cls-1" d="m35.2,58c-.6-.3-1.1-.6-1.7-.9,3-2.7,5.9-5.7,8.4-9,2.6-3.3,4.7-6.8,6.6-10.5.5,1.1.8,2,1.2,2.9,1.8,4.8,3.2,9.9,4.1,15,.2.9.3,1.8.5,2.9,0,.2-.2.5-.2.6-1.8,1.5-3.6,2.7-5.7,3.8-.2.2-.5.2-.8,0-1.8-.6-3.6-1.1-5.4-1.7-.3-.2-.5-.3-.5-.6.2-2-1.1-3.5-2.7-3.8-1.2-.3-2.3,0-3.2.9-.2,0-.5.1-.6.4Z"/>
    <path class="cls-1" d="m32.3,15.2c-4.2.6-8.1,1.5-12,2.9-1.2.4-2.3.9-3.3,1.2-.3.2-.5.2-.8-.2-1.1-1.1-2.7-1.2-3.9-.6-1.4.6-2.1,2.1-2,3.5,0,.2,0,.3-.2.3-.6.3-1.2.6-1.8,1.1-.3-1.1-.6-2.3-.8-3.3-.3-2.1-.8-4.2-1.1-6.2,0-.3,0-.6.3-1.1,2.6-3.3,5.6-6.2,9.2-8.3.2.2.3.2.6.3,5.6,2.7,10.5,6,15.2,10.1.3,0,.3.2.6.3Z"/>
    <path class="cls-1" d="m36.7,16.7c5.6-.5,11.1-.3,16.5.6-1.1,5.4-2.6,10.7-4.8,15.8-.2-.2-.2-.3-.3-.3-1.5-2.4-2.9-4.8-4.4-7.2-.2-.3-.2-.5,0-.8.8-1.4.6-2.7-.3-3.9-.9-1.2-2.1-1.7-3.6-1.2-.5.2-.6,0-.9-.3-.8-.8-1.5-1.7-2.3-2.4q.2-.1.1-.3Z"/>
    <path class="cls-1" d="m32,58.5c.8.5,1.5.8,2.4,1.2.2,0,.2.3.3.5.2,1.7,1.1,2.7,2.6,3.2,1.2.3,2.3,0,3.2-.6.2-.2.3-.2.5-.2,1.4.5,2.7.9,4.1,1.4-3.6,1.4-7.1,2.1-10.8,2.1s-7.4-.3-10.8-1.4c2.6-2,5.5-4.1,8.5-6.2Z"/>
    <path class="cls-1" d="m4.7,16.1c.3,1.8.6,3.5,1.1,5.3.2,1.1.5,2,.8,2.9,0,.3,0,.5-.2.6-2,1.4-3.8,2.7-5.7,4.1h-.2c-.5-1.8,2.2-9.9,4.2-12.9Z"/>
    <path class="cls-1" d="m61.9,16.9c-2.1-.5-4.2-.9-6.5-1.4.3-2,.5-3.9.8-6,2.4,2.2,4.2,4.7,5.7,7.4Z"/>
  </g>
</svg>