<?xml version="1.0" encoding="UTF-8"?>
<svg id="Layer_1" data-name="Layer 1" xmlns="http://www.w3.org/2000/svg" viewBox="0 0 510.09 414.15">
  <defs>
    <style>
      .cls-1 {
        fill-rule: evenodd;
      }

      .cls-1, .cls-2, .cls-3 {
        fill: #f7a53b;
      }

      .cls-4 {
        fill: #111;
      }

      .cls-3 {
        font-family: Marcana-Regular, Marcana;
        font-size: 142.25px;
        isolation: isolate;
      }
    </style>
  </defs>
  <path class="cls-1" d="m3.09,256.94h507v12.7H3.09v-12.7h0Z"/>
  <g>
    <path class="cls-4" d="m456.79,46.46c-3.8.98-6.57,2.62-9.66,5.74-2.97,2.94-4.2,4.87-5.41,8.49-.86,2.56-1.18,8.09-.61,10.86,2.01,10.28,10.52,17.51,20.71,17.54,6.71,0,12.38-2.62,16.3-7.57,6.54-8.18,6.6-19.94.18-27.84-2.94-3.61-7.26-6.33-11.67-7.32-2.7-.64-7.21-.58-9.84.1Zm8.93,4.17c3.77.98,6.77,3.11,8.87,6.3,1.58,2.38,2.13,3.74,2.82,6.54,2.04,8.87-3,18.21-11.09,20.54-1.39.4-2.62.49-5.13.4-3.14-.12-3.43-.18-5.96-1.45-4.38-2.16-7.38-5.99-8.67-11.03-.61-2.44-.61-6.77,0-9.19,1.52-5.84,5.99-10.55,11.46-12.07,1.96-.57,5.72-.57,7.7-.04Z"/>
    <path class="cls-4" d="m457.2,56.71c-1.58.12-3,.34-3.14.49s-.25,4.78-.21,10.77l.09,10.46,2.41.09,2.38.09v-8.67h1.73c1.88,0,3.68.69,4.17,1.61.15.31.58,1.64.89,2.97,1.12,4.29.89,4.07,3.89,4.07q2.56,0,2.28-.72c-.15-.37-.58-1.91-.92-3.43-.8-3.37-1.61-5.01-2.82-5.68-.89-.52-1.21-1.3-.49-1.3.21,0,.92-.43,1.58-.98,2.04-1.67,2.53-3.89,1.45-6.3-.75-1.67-1.67-2.47-3.4-3.03-1.77-.57-6.03-.75-9.89-.44Zm6.91,3.83c1.12.55,1.7,1.58,1.7,2.97,0,1.85-2.44,3.17-5.5,3l-1.45-.09-.09-2.74c-.06-1.52-.03-2.94.06-3.17.26-.62,3.98-.56,5.28.03Z"/>
    <path class="cls-4" d="m34.73,61.28c-.18.28,4.11,1.39,4.35,1.15.12-.12-3.52-1.42-3.95-1.42-.13,0-.31.12-.4.27Z"/>
    <path class="cls-4" d="m276.11,69.95c-6.17.86-10.22,1.79-15.59,3.68-12.56,4.38-24.49,12.47-33.04,22.41-16.14,18.84-23.86,43.84-21.89,71.16,1.55,21.89,10,41.18,24.35,55.6,5.53,5.56,10.6,9.36,17.03,12.71,14.57,7.66,34.69,10.22,52.26,6.63,21.06-4.26,36.85-17.26,49.98-41.06l1.15-2.07-3.25-2.16c-1.79-1.21-3.37-2.19-3.49-2.19-.12.03-1.58,1.85-3.17,4.11-13.68,19.11-23.46,26.45-39.21,29.42-4.17.77-14.63.8-19.14,0-24.05-4.14-39.12-19.97-44.6-46.93-2.82-13.86-2.56-36.71.58-50.88,2.04-9.05,3.83-14.38,7-20.77,8.39-16.8,21-25.53,39.42-27.35,6.05-.58,13.31.25,19.51,2.22,16.45,5.31,27.17,18.33,34.11,41.4.43,1.48.92,2.77,1.04,2.88.15.06.95-.06,1.82-.31,1.91-.58,3.8-2.56,4.38-4.63.43-1.52.31-3.86-1.85-36.74-.15-2.56-.46-7.41-.66-10.8-.18-3.4-.4-6.36-.46-6.57-.06-.28-1.12-.37-3.8-.37h-3.71l-.34,1.3c-1.09,4.17-2.65,7.29-4.44,8.7-1.01.83-1.39.95-3.06.92-1.73,0-2.38-.25-7-2.53-9.22-4.55-16.42-6.83-24.86-7.9-4.86-.64-13.82-.58-19.07.12Z"/>
    <path class="cls-4" d="m415.65,72.94c-.8,2.01-1.67,4.04-1.88,4.58-.21.49-1.15,2.82-2.07,5.1-4.2,10.25-5.28,12.91-7.78,18.99-3.4,8.24-4.75,11.61-12.25,29.94-1.18,2.88-2.25,5.53-2.41,5.87-.15.34-1.04,2.5-1.98,4.78-2.5,6.17-5.84,14.35-8.06,19.76-1.09,2.62-2.77,6.8-3.8,9.25-.98,2.47-2.88,7.03-4.17,10.19s-3.17,7.78-4.23,10.34c-1.01,2.53-2.01,4.9-2.16,5.25-.15.34-1.67,4.01-3.4,8.12-6.11,14.81-10.49,21.79-14.95,23.8-1.61.75-6.36,2.04-8.58,2.37-.8.09-1.61.37-1.79.58-.22.25-.31,1.85-.25,4.2l.09,3.83h53.12v-8.34l-2.01-.22c-6.74-.72-10.12-1.42-12.22-2.5-1.33-.69-3.06-2.71-3.52-4.07-.25-.72-.31-1.76-.15-2.88.43-3.61,1.64-7.14,6.42-18.73.77-1.88,2.47-5.96,3.77-9.11,1.3-3.14,2.59-6.27,2.88-6.94.25-.69.61-1.33.8-1.45.18-.12,13.14-.25,28.81-.25h28.46l.46.89c.8,1.55,10,24.6,11.03,27.57,1.21,3.55,2.13,7.69,2.13,9.51,0,2.59-1.85,5.22-4.47,6.3-1.48.61-5.41,1.36-8.55,1.61l-2.71.18v8.58h65.46v-8.55l-2.53-.22c-3.58-.31-6.17-.98-9.11-2.37-3.06-1.45-5.22-3.46-7.5-6.91-1.91-2.94-5.28-9.79-7.26-14.66-.77-1.95-1.55-3.83-1.7-4.17-.15-.34-.83-2.01-1.52-3.71-1.76-4.58-31.8-79.55-32.13-80.27-.28-.58-1.76-4.35-14.6-36.5l-5.31-13.37h-6.86l-1.52,3.63Zm2.47,50.88c1.95,4.9,3.71,9.22,3.86,9.57,1.33,2.82,11.76,29.48,11.92,30.4.31,1.88-.61,4.44-2.22,6.17-2.38,2.53-1.82,2.47-22.85,2.47-14.49,0-18.33-.09-18.33-.4,0-.18.55-1.7,1.21-3.31,2.91-7,7.23-17.47,8.99-21.76,1.04-2.56,2.16-5.22,2.5-5.93.31-.75.58-1.39.58-1.48,0-.15,3.34-8.24,5.07-12.35.21-.52,1.52-3.58,2.85-6.86,1.33-3.28,2.53-5.84,2.65-5.71.12.15,1.79,4.26,3.77,9.19Z"/>
    <path class="cls-4" d="m8.3,77.34v4.29l5.8.12c4.78.12,6.08.25,7.47.77,4.44,1.64,6.91,3.64,7.81,6.45.28.83.66,3.03.83,4.9.43,4.69.43,119.77,0,124.41-.75,7.57-2.47,10.19-8.21,12.22-1.52.52-2.82.69-7.75.8l-5.96.18v8.55h70.7v-8.55l-5.47-.18c-6.66-.21-8.52-.69-12.32-3.2-2.07-1.36-3.03-2.82-3.71-5.84-.55-2.31-.58-5.37-.69-62.03-.06-36.18.03-61.16.22-63.59.55-7.5,1.67-10.34,4.93-12.53,2.85-1.88,4.35-2.22,11.15-2.41,3.31-.09,5.99-.28,5.96-.43-.06-.12-.09-2.04-.09-4.23v-4.01H8.3v4.31Z"/>
    <path class="cls-4" d="m88.07,73.45c-.06.21-.09,2.13-.06,4.26l.09,3.83,5.87.18c6.11.22,6.89.37,10.12,2.01,3.25,1.61,4.75,3.4,5.44,6.45.8,3.68.95,12.76.95,66.06s-.12,61.83-1.15,66.38c-.58,2.71-.95,3.43-2.53,4.93-2.94,2.85-5.41,3.58-13,3.83l-5.71.18v8.34l35.44.09,35.41.06v-8.55l-5.47-.18c-6.05-.18-7.72-.52-11.18-2.37-2.74-1.48-4.17-3.2-4.75-5.8-.28-1.15-.55-2.88-.66-3.83-.12-.95-.18-14.66-.18-30.4v-28.64h15.81c17.14,0,17.72.06,21.15,1.76,1.98.98,4.29,3.61,5.5,6.2,1.24,2.71,1.73,5.34,1.98,10.55l.18,4.01.92-.09c1.88-.15,3.52-1.01,4.9-2.56,2.47-2.74,2.34-1.15,2.34-30.43v-26.02h-7.97l-.15.98c-.86,5.74-1.24,7.75-1.88,10-1.85,6.33-4.2,8.82-9.88,10.49-1.64.46-3.77.55-17.35.64-8.55.09-15.53.03-15.53-.12v-59.3c0-.69,38.87-.34,42.9.34,6.2,1.04,9.45,2.56,13,6.08,3.68,3.61,5.71,7.6,8.27,16.05l1.18,3.86,3.89.09,3.92.09-.15-1.33c-.09-.75-.37-6.83-.66-13.52-.43-11.09-.98-24.72-1.04-24.95,0-.03-26.94-.06-59.89-.06-48.98,0-59.95.07-60.07.41Z"/>
  </g>
  <text class="cls-3" transform="translate(0 384.43)"><tspan x="0" y="0">software</tspan></text>
  <g>
    <path class="cls-2" d="m72.79,35.04c-.1.6-.1,1.2-.3,1.8-.7,6.3-3.1,11.8-7.2,16.5-.9,1-1.9,2.1-2.8,3.1h-.1c-.1-.6-.1-1-.3-1.6-1-6.7-3-13.3-5.8-19.5-.1-.1,0-.6,0-.7,1.9-4.3,3.4-8.9,4.6-13.6.3-1.2.6-2.5.9-3.7.7.1,1.6.3,2.4.4,1.8.4,3.4.7,5.1,1.2.3,0,.4.1.6.4,1.5,3.3,2.4,6.6,2.7,10.1,0,.4.1.9.1,1.3.1,1.5.1,3,.1,4.3Z"/>
    <path class="cls-2" d="m15.89,25.24c.7-.4,1.3-.7,2.1-1.2.1,0,.3,0,.4.1,1.5,1.3,3.6,1.2,4.9-.3.6-.7.9-1.5.9-2.4,0-.3.1-.4.4-.6,4.6-1.9,9.5-3.1,14.5-3.9.6-.1,1-.1,1.6-.1.1,0,.3,0,.4.1,1.2,1.3,2.5,2.5,3.7,3.9-.9,1.5-1,3,.1,4.3,1,1.3,2.4,1.6,4,1,.3.3.4.7.7,1,1.6,2.4,3,4.9,4.2,7.5.1.3.1.4,0,.7-2.8,5.8-6.4,11.2-10.9,15.9-1.3,1.3-2.7,2.7-4,4-.3.3-.4.3-.7,0-7.6-4.6-13.4-10.7-17.6-18.6-1.9-3.6-3.4-7.5-4.6-11.3l-.1-.1Z"/>
    <path class="cls-2" d="m14.19,26.44c3.9,13,11.2,23.2,22.8,30.6-.1.1-.3.3-.4.3-2.7,2.1-5.5,4-8.5,5.8-.1.1-.4.1-.6,0-10.1-4.5-16.5-12.1-19.4-22.8-.7-2.8-.9-5.7-.9-8.5,0-.1.1-.4.3-.6,2.2-1.6,4.3-3.3,6.6-4.8h.1Z"/>
    <path class="cls-2" d="m25.39,3.44c1.6-.9,3.4-1.5,5.2-2.1C33.99.34,37.49-.16,40.99.04c7.5.3,14.2,2.8,19.8,7.5.1.1.3.3.3.4-.3,2.4-.4,4.6-.7,7,0,0,0,.1-.1.1-.7-.1-1.3-.1-2.1-.3-4-.4-8-.6-12.2-.4-1.3,0-2.7.1-4,.3-.1,0-.4,0-.6-.1-4.8-4.3-10-8-15.8-10.9.1,0,0,0-.2-.2Z"/>
    <path class="cls-2" d="m42.09,57.54c-.6-.3-1-.6-1.6-.9,3-2.7,5.8-5.7,8.3-8.9,2.5-3.3,4.6-6.7,6.6-10.4.4,1,.7,1.9,1.2,2.8,1.8,4.8,3.1,9.8,4,14.9.1.9.3,1.8.4,2.8,0,.1-.1.4-.1.6-1.8,1.5-3.6,2.7-5.7,3.7-.1.1-.4.1-.7,0-1.8-.6-3.6-1-5.4-1.6-.3-.1-.4-.3-.4-.6.1-1.9-1-3.4-2.7-3.7-1.2-.3-2.2,0-3.1.9-.3,0-.6.1-.8.4Z"/>
    <path class="cls-2" d="m39.29,15.14c-4.2.6-8,1.5-11.9,2.8-1.2.4-2.2.9-3.3,1.2-.3.1-.4.1-.7-.1-1-1-2.7-1.2-3.9-.6-1.3.6-2.1,2.1-1.9,3.4,0,.1,0,.3-.1.3-.6.3-1.2.6-1.8,1-.3-1-.6-2.2-.7-3.3-.3-2.1-.7-4.2-1-6.1,0-.3,0-.6.3-1,2.5-3.3,5.5-6.1,9.1-8.2.1.1.3.1.6.3,5.5,2.7,10.4,6,15.1,10-.1,0-.1.1.2.3Z"/>
    <path class="cls-2" d="m43.59,16.54c5.5-.4,11-.3,16.4.6-1,5.4-2.5,10.6-4.8,15.6-.1-.1-.1-.3-.3-.3-1.5-2.4-2.8-4.8-4.3-7.2-.1-.3-.1-.4,0-.7.7-1.3.6-2.7-.3-3.9s-2.1-1.6-3.6-1.2c-.4.1-.6,0-.9-.3-.7-.7-1.5-1.6-2.2-2.4q.1,0,0-.2Z"/>
    <path class="cls-2" d="m38.99,58.04c.7.4,1.5.7,2.4,1.2.1,0,.1.3.3.4.1,1.6,1,2.7,2.5,3.1,1.2.3,2.2,0,3.1-.6.1-.1.3-.1.4-.1,1.3.4,2.7.9,4,1.3-3.6,1.3-7,2.1-10.7,2.1s-7.3-.3-10.7-1.3c2.9-2,5.7-4,8.7-6.1Z"/>
    <path class="cls-2" d="m11.89,15.94c.3,1.8.6,3.4,1,5.2.1,1,.4,1.9.7,2.8,0,.3,0,.4-.1.6-1.9,1.3-3.7,2.7-5.7,4h-.1c-.5-1.5,2.2-9.6,4.2-12.6Z"/>
    <path class="cls-2" d="m68.59,16.74c-2.1-.4-4.2-.9-6.4-1.3.3-1.9.4-3.9.7-6,2.5,2.2,4.2,4.6,5.7,7.3Z"/>
  </g>
</svg>